<svg 
  xmlns="http://www.w3.org/2000/svg" 
  viewBox="0 0 2013.09 468" 
  class="w-40 h-auto text-purple-700"
  fill="currentColor"
>
  <polygon points="0 99.37 96.23 99.37 100.17 99.37 292.56 99.37 292.56 241.68 197.16 241.68 197.16 331.59 197.16 331.98 197.16 338.66 297.59 338.66 299.5 336.34 394.31 241.86 394.31 0 0 0 0 99.37"/>
  
  <polygon points="100.17 273.23 100.17 265.82 100.17 130.93 96.23 130.93 0 226.82 0 350.71 0 375.33 0 468 170.22 467.27 265.79 370.81 100.17 370.21 100.17 273.23"/>
  
  <path d="M576.96.34h-171.47v241.02h74.37v-68.86h97.1c44.07,0,62.67-18.59,62.67-62.67v-46.83c0-44.07-18.59-62.67-62.67-62.67ZM565.26,99.16c0,14.12-4.48,18.59-18.59,18.59h-66.8v-59.91h66.8c14.12,0,18.59,4.48,18.59,18.59v22.72Z"/>
  
  <polygon points="738.79 .34 664.42 .34 664.42 241.36 858.62 241.36 858.62 175.59 738.79 175.59 738.79 .34"/>
  
  <path d="M964.66.34l-101.23,241.02h78.5l13.43-37.53h98.82l13.43,37.53h82.29L1049.02.34h-84.36ZM973.96,152.53l30.99-85.39,30.64,85.39h-61.63Z"/>
  
  <path d="M1342.72,95.71l-97.1-8.61c-11.36-1.03-15.15-4.13-15.15-15.15v-4.48c0-11.36,3.79-15.15,15.15-15.15h59.91c11.36,0,15.15,3.79,15.15,15.15v6.89h71.62v-19.63c0-37.53-17.22-54.4-54.4-54.4h-127.4c-37.19,0-54.4,16.87-54.4,54.4v32.37c0,36.84,15.84,50.61,54.4,54.4l97.1,8.61c12.05,1.03,15.15,3.79,15.15,15.15v8.61c0,11.36-3.79,15.15-15.15,15.15h-68.17c-11.36,0-15.15-3.79-15.15-15.15v-9.98h-71.62v23.07c0,37.53,17.22,54.4,54.4,54.4h135.66c37.19,0,54.4-16.87,54.4-54.4v-36.84c0-37.19-15.84-51.3-54.4-54.4Z"/>
  
  <polygon points="1569.62 125.67 1492.49 .34 1427.07 .34 1427.07 241.36 1495.94 241.36 1495.94 120.5 1549.31 203.83 1587.18 203.83 1640.55 120.5 1640.55 241.36 1709.41 241.36 1709.41 .34 1647.09 .34 1569.62 125.67"/>
  
  <path d="M1912.21.34h-84.36l-101.23,241.02h78.5l13.43-37.53h98.82l13.43,37.53h82.29L1912.21.34ZM1837.15,152.53l30.99-85.39,30.64,85.39h-61.63Z"/>
</svg>